<?xml version="1.0" encoding="UTF-8" standalone="no"?>
<!-- Created with Inkscape (http://www.inkscape.org/) -->

<svg
   version="1.1"
   id="svg3355"
   width="1213.9961"
   height="717.20917"
   viewBox="0 0 1213.9961 717.20917"
   sodipodi:docname="Boat50c.svg"
   inkscape:version="1.2.2 (732a01da63, 2022-12-09, custom)"
   xmlns:inkscape="http://www.inkscape.org/namespaces/inkscape"
   xmlns:sodipodi="http://sodipodi.sourceforge.net/DTD/sodipodi-0.dtd"
   xmlns="http://www.w3.org/2000/svg"
   xmlns:svg="http://www.w3.org/2000/svg">
  <defs
     id="defs3359" />
  <sodipodi:namedview
     id="namedview3357"
     pagecolor="#ffffff"
     bordercolor="#000000"
     borderopacity="0.25"
     inkscape:showpageshadow="2"
     inkscape:pageopacity="0.0"
     inkscape:pagecheckerboard="0"
     inkscape:deskcolor="#d1d1d1"
     showgrid="false"
     inkscape:zoom="0.6251321"
     inkscape:cx="414.31243"
     inkscape:cy="375.92054"
     inkscape:window-width="1920"
     inkscape:window-height="1031"
     inkscape:window-x="0"
     inkscape:window-y="25"
     inkscape:window-maximized="1"
     inkscape:current-layer="layer3" />
  <g
     inkscape:groupmode="layer"
     id="layer3"
     inkscape:label="Layer 1">
    <path
       id="path3365"
       style="fill:#000000;stroke-width:1.33333"
       d="M 751.51482 28.124169 C 748.72856 28.104955 745.79522 28.94663 742.9992 30.651513 L 738.66717 33.294091 L 738.66717 68.647606 L 738.66717 103.99917 L 707.27264 103.99917 L 675.8781 103.99917 L 672.60662 107.27261 C 668.68047 111.19852 668.51126 113.96853 671.86248 119.46401 C 675.04812 124.68818 679.43492 125.30553 713.46599 125.32143 L 738.26678 125.33315 L 739.17498 141.3937 C 739.67417 150.22704 739.72854 158.02815 739.29607 158.72768 C 738.86359 159.42744 732.37076 159.99917 724.86834 159.99917 C 707.63609 159.99917 698.91763 162.19313 681.39178 170.94058 C 669.53836 176.85655 665.4335 179.84181 653.99529 190.85854 L 640.54217 203.81753 L 606.27068 204.77456 L 571.9992 205.73354 L 571.9992 183.86636 L 571.9992 161.99917 L 611.15349 162.43667 L 650.30974 162.87417 L 653.2824 159.10464 C 656.67881 154.79579 656.45638 147.59743 652.75506 141.94839 L 650.60467 138.66714 L 611.30193 138.66714 L 571.9992 138.66714 L 571.9992 109.45229 L 571.9992 80.23745 L 567.89764 76.784325 C 562.71015 72.419448 560.40627 72.44416 555.73943 76.915185 L 551.9992 80.499169 L 551.9992 109.38003 L 551.9992 138.26089 L 517.21599 139.00893 C 483.41263 139.73443 482.34206 139.83996 479.21599 142.77651 C 475.23615 146.51559 475.02336 152.38234 478.65154 158.33315 L 481.29412 162.66714 L 497.64764 162.71401 C 506.64153 162.73983 522.09943 162.88852 531.9992 163.04604 L 549.9992 163.33315 L 549.9992 184.66714 L 549.9992 205.99917 L 536.08318 206.38198 L 522.16717 206.76479 L 510.36639 219.04995 C 488.57486 241.73423 476.69227 259.2137 471.20037 276.66714 L 467.8449 287.33315 L 442.32342 303.21401 C 428.28697 311.94797 387.37133 337.06151 351.40154 359.02065 C 209.657 445.55524 192.9164 456.07168 139.33318 492.24526 C 91.001692 524.87365 68.859847 540.3183 60.936698 546.92886 C 57.419098 549.86348 52.989799 552.67937 51.092948 553.18667 C 48.55049 553.86665 46.977565 555.80565 45.108573 560.56362 C 43.714155 564.11358 42.745269 567.13817 42.954276 567.28433 C 43.163284 567.43049 89.042833 583.70104 144.9074 603.44058 L 246.48162 639.3312 L 257.1906 654.20034 C 283.70186 691.01283 306.69475 716.05654 330.75115 734.32143 L 343.4699 743.97768 L 420.73553 744.33315 C 463.23032 744.52858 642.33147 744.83364 818.72771 745.01089 L 1139.4562 745.33315 L 1149.1769 739.33901 C 1192.8433 712.41754 1228.1448 673.96615 1249.4933 630.06558 C 1253.7555 621.30157 1257.0936 613.98417 1256.9133 613.80386 C 1256.733 613.62356 1248.7143 616.13606 1239.0929 619.38784 C 1191.0353 635.63034 1130.4119 647.54249 1059.9992 654.5812 C 1036.4219 656.93807 947.07938 663.99917 940.83709 663.99917 C 938.89758 663.99917 938.66717 660.82531 938.66717 634.06362 L 938.66717 604.12612 L 944.9992 604.79604 C 957.27101 606.09456 1159.0611 621.33315 1163.9836 621.33315 C 1169.5888 621.33315 1175.9992 616.20449 1175.9992 611.72183 C 1175.9992 606.10097 1168.3456 597.03616 1145.2746 575.33315 C 1070.9941 505.45517 1038.7121 457.79309 1038.7121 417.99917 C 1038.7121 402.0876 1044.9108 382.84693 1054.5461 368.84292 C 1056.8129 365.54826 1058.6672 362.5108 1058.6672 362.09292 C 1058.6672 361.67506 1047.4674 361.33315 1033.7785 361.33315 C 1020.0897 361.33315 1009.2493 360.97175 1009.6906 360.53042 C 1010.132 360.08906 1019.4832 359.79768 1030.4699 359.88198 C 1050.3005 360.03411 1050.4639 360.01016 1053.0812 356.68276 C 1056.5719 352.24528 1055.7412 349.08465 1045.3527 327.33315 C 1040.7997 317.80005 1034.4523 303.86824 1031.2472 296.37417 C 1010.859 248.69723 1009.6627 220.21513 1026.8312 191.03628 C 1032.1614 181.9773 1049.3029 164.40889 1060.9543 156.06558 C 1065.5124 152.8016 1069.1126 150.01095 1068.9543 149.8644 C 1068.7961 149.71785 1041.9642 150.41695 1009.3332 151.41714 C 976.7001 152.41734 948.05028 153.25723 945.66717 153.28433 L 941.33318 153.33315 L 941.33318 136.66714 L 941.33318 119.99917 L 973.11834 119.99917 L 1004.9054 119.99917 L 1006.4523 116.60464 C 1008.9372 111.15089 1008.3138 106.09376 1004.7433 102.7394 C 1001.6053 99.791552 1000.4248 99.654569 972.26482 98.983544 L 943.04412 98.286278 L 942.19646 85.477685 C 941.72983 78.432199 941.34499 66.250892 941.34099 58.409325 C 941.33461 45.191615 941.11755 43.99954 938.37029 42.075341 C 934.45607 39.333615 928.96608 39.443488 925.48357 42.333153 C 922.82243 44.541468 922.65267 46.060236 922.33514 70.667138 L 921.9992 96.667138 L 892.19256 97.026513 C 863.20503 97.375837 862.31704 97.466307 859.90349 100.35854 C 856.76582 104.11902 856.68649 109.21541 859.66717 115.48354 L 861.9992 120.38979 L 891.66717 119.48159 L 921.33318 118.57339 L 921.33318 135.89175 L 921.33318 153.21206 L 916.9992 153.90347 C 914.61586 154.28383 901.51654 154.76458 887.88982 154.96987 L 863.11443 155.34292 L 857.88982 159.22964 C 848.9341 165.89562 827.52134 188.1617 818.96599 199.70229 C 804.04771 219.82703 792.30673 243.55472 786.13982 266.04409 C 782.40623 279.6606 781.65562 278.11355 784.74334 263.16518 C 790.60648 234.7794 809.2416 198.0447 833.52654 166.99917 L 840.04412 158.66714 L 799.3156 158.66714 L 758.58514 158.66714 L 758.95818 142.33315 L 759.33318 125.99917 L 791.27459 125.64175 C 821.89485 125.29844 823.34143 125.16467 826.27459 122.40933 C 830.07068 118.84287 830.16869 114.75424 826.56951 110.17886 L 823.80584 106.66714 L 793.23748 106.66714 L 762.66717 106.66714 L 762.66717 70.096825 L 762.66717 33.526513 L 759.15349 30.762841 C 756.94238 29.023451 754.3013 28.143383 751.51482 28.124169 z M 465.9992 295.52261 L 466.91131 304.76089 C 467.41247 309.84198 468.14785 315.65508 468.54607 317.6769 C 469.19723 320.98308 467.02504 323.65269 446.96795 344.20425 C 410.00612 382.07723 351.1381 433.64951 281.33318 489.31167 C 247.58926 516.21893 246.96845 516.61869 262.90545 501.173 C 279.7291 484.86782 298.94618 464.37809 337.2199 421.93472 C 374.93587 380.10974 423.51619 331.3256 447.9992 310.69253 L 465.9992 295.52261 z M 892.40154 297.56948 C 894.43632 297.58246 896.47138 297.63832 898.50506 297.73745 C 921.99854 298.88269 919.9992 296.85975 919.9992 319.4894 C 919.9992 336.93179 919.78924 338.65087 917.66717 338.49136 C 916.38384 338.39491 890.43214 337.24136 859.9992 335.9269 C 829.56626 334.61243 801.96704 333.33981 798.66717 333.10073 L 792.66717 332.66714 L 804.15545 324.99526 C 831.3465 306.83933 861.88022 297.37477 892.40154 297.56948 z M 941.25701 305.33315 C 944.59542 305.33315 973.08774 316.37301 1000.6672 328.35268 C 1017.5328 335.6792 1031.5842 341.89807 1031.8898 342.17104 C 1032.1953 342.44397 1028.293 342.57583 1023.2219 342.46597 C 1013.9105 342.26415 940.9509 339.03405 940.33318 338.79604 C 939.29083 338.39441 940.20357 305.33315 941.25701 305.33315 z M 689.33318 314.13003 C 707.79697 314.08902 717.51131 316.04228 731.66717 322.64175 L 739.9992 326.52651 L 739.9992 343.93081 L 739.9992 361.33315 L 729.66717 361.16128 C 715.18499 360.92116 628.22026 355.33902 627.52459 354.60464 C 625.16452 352.11322 611.9992 331.2648 611.9992 330.0187 C 611.9992 329.0922 621.18199 326.17482 634.33318 322.923 C 667.24156 314.78582 671.0871 314.17053 689.33318 314.13003 z M 470.28631 326.52065 L 473.2492 334.44253 L 476.21209 342.3644 L 454.38201 368.84878 C 431.50951 396.59705 408.37421 425.20267 399.33514 436.91128 C 358.11426 490.30601 342.54472 511.34475 320.08709 543.99917 C 306.38606 563.92106 298.81836 574.0981 304.30389 565.22573 C 305.47377 563.33341 314.05828 547.13325 323.38006 529.22573 C 332.70186 511.31821 343.63304 490.66648 347.67107 483.33315 C 372.60512 438.05211 404.40798 396.57209 457.36443 340.26089 L 470.28631 326.52065 z M 758.66717 338.54409 L 764.9992 343.37612 C 775.04712 351.04277 789.16105 363.23902 789.25115 364.33315 C 789.29647 364.88315 788.28253 365.21325 786.9992 365.06753 C 785.71587 364.92182 780.16713 364.6208 774.66717 364.39761 C 757.75151 363.71121 758.66717 364.50106 758.66717 350.57925 L 758.66717 338.54409 z M 534.49529 344.27065 C 540.83521 344.18931 546.74824 344.88098 548.15349 346.28628 C 548.86584 346.99862 549.27265 352.62508 549.05779 358.79018 C 548.59027 372.20546 550.5343 371.5113 523.33318 367.98159 C 513.06656 366.64935 503.30084 365.50853 501.63201 365.44643 C 498.73611 365.33866 498.68697 365.16065 500.54607 361.56558 C 503.93037 355.02108 512.6815 348.26488 520.8449 345.89175 C 524.37454 344.86565 529.56429 344.33392 534.49529 344.27065 z M 792.24334 344.73159 C 792.47574 344.54707 821.317 346.23327 856.33318 348.47768 L 919.9992 352.55776 L 919.9992 359.30776 L 919.9992 366.05581 L 894.9992 371.00112 C 864.38197 377.05708 854.17408 378.42301 833.08904 379.29018 C 824.05634 379.66173 803.61693 380.29234 787.66717 380.69058 L 758.66717 381.41323 L 758.66717 377.95034 C 758.66717 375.28313 759.20231 374.64262 760.9992 375.16323 C 762.28253 375.53506 771.13395 376.24276 780.66717 376.7355 C 797.05627 377.58259 798.13419 377.48249 800.46599 374.89761 C 802.88053 372.22101 802.81514 371.8782 797.37615 358.6144 C 794.32066 351.1632 792.01096 344.91611 792.24334 344.73159 z M 478.32146 346.77847 L 485.49529 358.38979 C 489.43997 364.77584 493.09032 371.0327 493.60857 372.29409 C 494.12683 373.55549 495.92683 374.88426 497.60857 375.24722 C 500.98645 375.97626 543.97636 381.33315 546.44842 381.33315 C 547.52521 381.33315 547.9992 385.41563 547.9992 394.66714 L 547.9992 407.99917 L 525.54803 407.99917 L 503.09685 407.99917 L 484.24529 426.09292 C 447.63395 461.22629 428.85882 487.88962 418.1242 520.00308 C 411.45303 539.96002 409.0431 556.50103 408.83904 583.72378 C 408.66804 606.53701 408.63501 606.79017 405.63201 607.54409 C 400.93775 608.72264 399.59996 612.46162 401.90154 617.96987 C 402.98096 620.55329 404.37869 622.66714 405.00701 622.66714 C 405.63535 622.66714 437.0162 626.56337 474.74139 631.32534 C 512.46639 636.0875 544.08253 639.98736 544.9992 639.99136 C 546.22088 639.99736 546.66717 643.55993 546.66717 653.33315 L 546.66717 666.66714 L 537.62615 666.66714 L 528.58318 666.66714 L 520.82537 658.82534 L 513.0656 650.9855 L 478.86639 650.09683 C 445.42717 649.2282 401.17763 646.95477 400.2824 646.05972 C 400.03496 645.81228 398.88441 631.59772 397.72576 614.47183 C 394.69876 569.73619 394.70556 497.79493 397.73748 475.99917 C 401.1032 451.8037 404.01334 438.00641 406.65154 433.74526 C 407.92678 431.68554 424.57622 411.27547 443.64764 388.38979 L 478.32146 346.77847 z M 571.9992 352.02261 L 580.72967 355.30776 C 591.05147 359.19291 612.14493 368.35395 627.9992 375.83511 C 635.23197 379.24796 638.12652 381.15469 635.9992 381.10659 C 633.35482 381.04679 573.61551 373.85351 572.33318 373.44058 C 572.14985 373.38154 571.9992 368.53913 571.9992 362.67886 L 571.9992 352.02261 z M 939.9992 354.66714 L 948.9992 354.77261 C 965.49943 354.96759 1004.7037 358.08817 1001.9992 358.99136 C 1000.5325 359.48116 986.50685 360.52122 970.82928 361.3019 C 955.15167 362.08257 941.80035 363.04367 941.16131 363.43862 C 940.52226 363.83358 939.9992 362.02122 939.9992 359.41128 L 939.9992 354.66714 z M 638.83709 366.67886 C 639.84284 366.6859 661.36729 368.18444 686.66717 370.00893 C 711.96699 371.83347 734.31652 373.32825 736.33318 373.32925 C 739.51766 373.33201 739.9992 373.85924 739.9992 377.33315 C 739.9992 380.55555 739.416 381.35788 736.9992 381.45815 C 735.3492 381.52659 717.49972 382.07634 697.33318 382.68081 C 677.16663 383.28526 659.16651 384.13415 657.33318 384.56753 C 653.40956 385.49507 652.11293 384.53653 643.48943 374.33315 C 639.92573 370.11655 637.83135 366.67186 638.83709 366.67886 z M 852.70818 380.09097 C 852.83124 380.08954 852.95594 380.08969 853.07928 380.09292 C 856.28303 380.17659 856.3803 380.30995 853.9992 381.33315 C 850.2949 382.92494 847.68339 382.92494 848.66717 381.33315 C 849.09207 380.64566 850.86238 380.11242 852.70818 380.09097 z M 573.29021 385.70229 C 580.81059 385.73311 634.68076 392.30292 634.63201 393.29995 C 634.61318 393.68483 628.76311 396.85048 621.63201 400.33511 L 621.63201 400.33706 L 608.66717 406.673 L 589.49139 406.66909 L 570.3156 406.66714 L 570.96014 396.6437 C 571.31386 391.13085 571.97711 386.24593 572.43474 385.78823 C 572.4944 385.72858 572.78885 385.70024 573.29021 385.70229 z M 190.80779 495.27847 C 209.82614 494.99874 221.33318 501.18918 221.33318 512.43276 C 221.33318 525.30997 204.18286 548.10368 184.4406 561.46597 C 179.18347 565.02408 171.1942 571.00583 166.6867 574.75698 C 162.17895 578.50836 158.08085 582.64105 157.57928 583.94253 C 156.75508 586.08117 152.04749 584.87326 108.66717 571.39175 C 82.267704 563.18746 59.859644 556.19808 58.872245 555.8605 C 57.853454 555.51218 65.349298 549.05232 76.204276 540.92495 C 107.40798 517.56188 143.87613 501.41544 176.48943 496.52261 C 181.62935 495.75147 186.41906 495.34302 190.80779 495.27847 z M 268.8156 536.55972 C 276.09173 536.62092 282.35657 537.55386 285.8781 539.40151 C 301.69072 547.69733 298.58985 569.30919 276.61053 604.00308 C 271.03646 612.80129 265.76961 619.95441 264.90545 619.89761 C 262.35472 619.72999 164.29843 588.74584 163.36834 587.81362 C 162.61151 587.05504 186.70414 567.54006 202.0324 556.49526 C 208.98499 551.48568 223.17874 545.43068 239.4074 540.55386 C 248.43207 537.84177 259.4608 536.48102 268.8156 536.55972 z M 950.85662 545.47768 C 964.47923 545.63468 992.83642 548.19861 1008.6164 550.85854 C 1029.1619 554.32202 1059.6477 562.11997 1083.009 569.88589 C 1100.4913 575.69807 1143.3877 591.45278 1152.4133 595.37808 L 1156.6672 597.22964 L 1149.3332 597.12222 C 1145.2999 597.06367 1099.3979 594.42594 1047.3332 591.26089 C 995.26714 588.09563 949.49946 585.46659 945.63006 585.41909 L 938.5949 585.33315 L 938.96404 565.66714 L 939.33318 545.99917 L 945.9992 545.56558 C 947.26433 545.48307 948.91051 545.45526 950.85662 545.47768 z M 919.9992 546.63589 L 919.9992 565.31753 C 919.9992 583.8563 919.97602 583.99895 916.9992 583.81948 C 915.3492 583.72002 897.49955 582.56797 877.33318 581.26089 C 857.16681 579.95381 839.46586 578.83606 837.9992 578.77456 C 836.35224 578.70557 833.86899 576.34462 831.50506 572.60268 C 829.39979 569.27052 827.90109 566.3353 828.17303 566.07925 C 829.16617 565.14401 847.75367 559.98918 863.9992 556.1437 C 878.284 552.7623 893.44646 550.13145 914.9992 547.29409 L 919.9992 546.63589 z M 645.04021 550.66714 C 676.27301 550.66714 709.50949 554.90662 734.33318 562.05776 L 741.33318 564.07534 L 741.33318 588.70425 L 741.33318 613.33315 L 731.66717 613.15933 C 711.43789 612.79496 640.59499 607.61205 639.05584 606.38393 C 635.14957 603.26725 621.37805 561.76101 621.34295 552.99917 C 621.33441 550.86409 623.34854 550.66714 645.04021 550.66714 z M 351.75115 565.37222 C 369.02617 565.21278 381.59031 577.9455 389.1906 603.50503 C 391.8801 612.54936 395.97459 635.92934 395.99139 642.33315 C 395.99841 645.0083 395.38614 645.31054 390.33318 645.12026 C 363.41036 644.10644 272.66119 625.31915 271.02849 620.42104 C 270.71537 619.48165 271.49537 619.13204 273.01873 619.53042 C 274.82049 620.00159 276.4768 618.75762 278.92498 615.09292 C 284.94003 606.08896 298.54143 592.29369 309.7531 583.82534 C 325.90354 571.62686 339.93133 565.48131 351.75115 565.37222 z M 528.03435 568.7394 L 537.35076 571.91128 L 546.66717 575.08315 L 546.66717 598.87417 L 546.66717 622.66714 L 542.33318 622.5187 C 534.9338 622.26729 431.99692 609.77422 431.26092 609.03823 C 429.57961 607.35691 490.46675 581.42875 517.68474 572.2355 L 528.03435 568.7394 z M 759.33318 569.52065 L 772.66717 574.54018 C 785.26779 579.28326 785.97676 579.75141 785.57537 583.0812 C 785.29221 585.4302 786.22627 587.67937 788.37615 589.82925 C 791.18467 592.63761 793.30366 593.1746 804.79998 593.9855 C 817.63361 594.89076 818.37013 595.12294 831.33318 602.36831 C 846.39613 610.78727 862.66717 620.97731 862.66717 621.99136 C 862.66717 622.36284 862.51651 622.59262 862.33318 622.50112 C 862.14985 622.40961 839.09783 620.75831 811.10857 618.83315 C 783.1193 616.90816 759.85447 614.9686 759.40935 614.52261 C 758.96346 614.07664 758.76445 603.76848 758.96599 591.61636 L 759.33318 569.52065 z M 571.99529 587.99917 C 574.94007 587.99917 636.73843 627.44662 643.26678 633.49331 C 644.80177 634.91526 648.26127 635.22541 605.9992 630.15737 L 571.33318 625.99917 L 570.96404 606.99917 C 570.718 594.36266 571.06251 587.99917 571.99529 587.99917 z M 430.30193 592.1105 C 430.60938 592.07264 429.56797 593.67017 426.82928 597.12808 C 424.59536 599.94859 421.71186 603.09862 420.42107 604.12808 C 419.13027 605.15751 420.7001 602.84917 423.91131 598.99917 C 427.59435 594.58345 429.93088 592.15619 430.30193 592.1105 z M 851.53826 598.05581 C 854.71984 598.04904 867.58821 598.88072 882.66717 600.08706 C 899.90011 601.46573 915.3492 602.60993 916.9992 602.63003 L 919.9992 602.66714 L 919.9992 633.84487 L 919.9992 665.02261 L 916.33318 666.00112 C 911.134 667.38808 759.08263 668.45604 758.38982 667.1105 C 758.07505 666.49948 758.07116 658.65027 758.38201 649.66714 C 758.92416 634.00038 759.06488 633.33613 761.80779 633.41323 C 763.38055 633.45745 789.26712 635.76414 819.33318 638.53823 C 862.16442 642.49011 874.38274 643.23322 875.76873 641.97378 C 876.74165 641.0897 877.8731 637.8711 878.2824 634.81948 C 878.99886 629.47815 878.75282 629.0105 871.70818 622.3019 C 863.29524 614.29026 849.98555 598.89881 850.79021 598.11245 C 850.82759 598.07592 851.08375 598.05678 851.53826 598.05581 z M 649.02459 623.9855 C 659.05634 624.39185 739.36312 631.22329 740.9992 631.86831 C 741.18253 631.94059 741.33318 639.80002 741.33318 649.33315 L 741.33318 666.66714 L 655.9992 666.66714 L 570.66717 666.66714 L 570.66717 655.33315 C 570.66717 645.78054 571.0049 643.99917 572.82342 643.99917 C 574.01002 643.99917 591.78243 646.11768 612.3156 648.7062 C 632.84875 651.29474 650.79318 653.04879 652.19256 652.60464 C 653.59195 652.1605 655.68888 650.34663 656.85076 648.57339 C 658.78269 645.62489 658.77579 644.88084 656.77264 639.87417 C 655.56781 636.863 653.10013 632.22129 651.29021 629.55776 C 649.4805 626.89444 647.9992 624.38989 647.9992 623.99331 C 647.9992 623.95954 648.35579 623.95841 649.02459 623.9855 z "
       transform="translate(-42.924979,-28.124169)" />
    <path
       id="path3392"
       style="display:inline;fill:#ffcc00;stroke-width:1.33333"
       d="M 751.99334 31.196435 C 750.89022 31.182815 749.60947 31.630416 747.46014 32.528466 L 742.66717 34.530419 L 742.66717 70.598778 L 742.66717 106.66714 L 710.96404 106.66714 C 676.76239 106.66714 673.28305 107.32065 673.37615 113.74136 C 673.46765 120.04937 676.07431 121.33228 688.81365 121.33706 C 695.3328 121.33906 710.11718 121.73498 721.66717 122.21401 L 742.66717 123.08511 L 742.66717 140.65347 C 742.66717 150.31643 743.09494 158.6496 743.61834 159.173 C 744.14174 159.69638 746.99239 159.94748 749.95232 159.72964 L 755.33318 159.33315 L 755.70428 140.99917 L 756.07537 122.66714 L 788.70428 122.66714 C 819.47483 122.66714 821.48342 122.51496 823.97967 120.0187 C 826.21243 117.78592 826.38744 116.84694 825.09881 114.0187 L 823.57146 110.66714 L 791.11834 110.66714 L 758.66717 110.66714 L 758.66717 72.696435 L 758.66717 34.727685 L 755.46014 32.626122 C 754.02194 31.68378 753.09645 31.210054 751.99334 31.196435 z M 930.50115 44.067528 C 925.56108 44.122455 925.33318 48.165096 925.33318 73.497216 L 925.33318 99.999169 L 894.9992 100.04214 L 864.66717 100.08315 L 862.19256 103.47964 C 859.96369 106.53858 859.89977 107.35575 861.55779 111.71206 L 863.39959 116.548 L 893.70037 116.15542 L 923.9992 115.76479 L 923.9992 134.548 L 923.9992 153.33315 L 930.66717 153.33315 L 937.33318 153.33315 L 937.33318 135.33315 L 937.33318 117.33315 L 969.87029 117.33315 L 1002.4054 117.33315 L 1003.8469 113.20229 C 1005.4367 108.64198 1004.1709 104.86162 1000.5949 103.4894 C 999.41458 103.03646 991.7478 102.66461 983.55779 102.66128 C 975.36778 102.65828 961.91716 102.26556 953.66717 101.79018 L 938.66717 100.92495 L 938.53435 80.130028 C 938.46185 68.692085 938.01183 56.032498 937.53435 51.999169 C 936.72921 45.19807 936.39445 44.635943 932.91912 44.23745 C 932.00795 44.132973 931.20687 44.059682 930.50115 44.067528 z M 562.11248 77.49331 C 560.92935 77.561108 559.63386 78.464713 557.7531 80.231591 C 554.71145 83.089079 554.66717 83.546863 554.66717 112.04018 L 554.66717 140.94839 L 545.66717 141.798 C 540.71717 142.2655 524.8165 142.65216 510.33318 142.65737 C 485.78461 142.66637 483.81911 142.84722 481.33318 145.33315 C 478.00471 148.66163 478.00352 150.22838 481.31951 155.66714 L 483.96014 159.99917 L 518.64764 159.99917 L 553.33318 159.99917 L 553.33318 182.44448 C 553.33318 194.78892 553.77852 205.33513 554.32342 205.88003 C 554.86833 206.42494 557.04397 206.52536 559.1574 206.10268 C 561.27086 205.68 564.1242 205.33315 565.4992 205.33315 C 567.84926 205.33315 567.9992 203.92046 567.9992 181.78628 L 567.9992 158.24136 L 608.64959 159.06362 C 647.61175 159.85191 649.35602 159.78147 650.64959 157.3644 C 652.6286 153.66659 652.29765 147.6835 649.92498 144.29604 C 647.85869 141.346 647.67018 141.33315 607.92498 141.33315 L 567.9992 141.33315 L 567.9992 111.77261 C 567.9992 86.136275 567.70776 81.887153 565.79412 79.772606 C 564.36668 78.1953 563.29561 77.425512 562.11248 77.49331 z M 926.94256 301.53628 C 923.82028 301.59142 923.9992 305.34105 923.9992 319.99917 L 923.9992 338.66714 L 929.80389 338.66714 L 935.60857 338.66714 L 936.47185 328.46597 C 936.94613 322.85533 937.33318 315.08269 937.33318 311.19448 C 937.33318 304.16104 937.30768 304.11895 932.33318 302.73745 C 929.8917 302.05942 928.16432 301.5147 926.94256 301.53628 z M 743.9992 329.25308 L 743.9992 345.96011 L 743.9992 362.66714 L 749.16131 362.66714 L 754.32342 362.66714 L 755.23748 350.97378 C 755.74058 344.54277 755.80703 338.39341 755.38592 337.30776 C 754.96481 336.22209 752.23046 333.96598 749.30974 332.29409 L 743.9992 329.25308 z M 793.10076 335.69839 C 791.37967 335.6905 790.4419 335.71835 790.37615 335.78237 C 788.73398 337.38149 790.86691 342.66575 793.15545 342.66909 C 794.35325 342.67009 845.73324 345.93514 907.33318 349.923 C 1016.9585 357.01989 1019.6552 357.13225 1034.4777 355.19058 C 1048.9728 353.29179 1058.4504 353.33089 1047.3332 355.24331 C 1044.3999 355.74791 1039.8999 356.661 1037.3332 357.27456 C 1032.9968 358.31118 1033.198 358.40041 1040.1847 358.52847 C 1045.6582 358.62873 1048.5308 357.99819 1050.7414 356.20815 C 1054.883 352.85447 1053.5243 350.45315 1045.8312 347.53433 C 1040.0945 345.35779 1024.8146 344.47157 915.33318 339.96011 C 855.65824 337.50104 805.14838 335.75359 793.10076 335.69839 z M 553.04217 346.66714 C 552.41442 346.66714 552.07155 352.21585 552.2824 358.99917 L 552.66717 371.33315 L 558.66717 372.13393 C 561.96716 372.57378 565.41651 373.02378 566.33318 373.13393 C 567.55098 373.28025 567.9992 370.29516 567.9992 362.0519 L 567.9992 350.77065 L 561.09099 348.71792 C 557.29123 347.58951 553.66993 346.66714 553.04217 346.66714 z M 923.9992 353.33315 L 923.9992 359.33315 C 923.9992 365.76542 924.35011 365.99578 931.83318 364.49917 C 935.63963 363.73788 935.9992 363.21916 935.9992 358.49917 L 935.9992 353.33315 L 929.9992 353.33315 L 923.9992 353.33315 z M 632.68865 357.92886 C 631.5713 357.91352 630.95954 357.92945 630.9074 357.98159 C 630.49026 358.39874 631.46944 360.06119 633.08318 361.67495 C 635.89329 364.48504 639.24152 364.84274 712.34099 370.15933 C 754.31979 373.21248 790.76652 375.62656 793.33318 375.52261 C 796.34114 375.40074 797.9992 374.67405 797.9992 373.47768 C 797.9992 372.45683 796.50049 370.55326 794.66717 369.24917 C 791.76862 367.18734 780.92014 366.24977 711.4992 362.0519 C 673.07906 359.72864 640.51008 358.03619 632.68865 357.92886 z M 502.62615 368.25698 C 496.26806 368.19953 496.04922 369.39152 496.02068 371.52847 C 495.99748 373.26446 494.97177 373.11205 578.66717 383.8644 C 645.69247 392.47515 648.10479 392.69436 650.39959 390.39956 C 653.21535 387.5838 652.12904 385.65475 647.20818 384.73159 C 644.57277 384.23717 609.93859 380.00118 570.24334 375.31948 C 529.12417 370.46984 510.80084 368.33085 502.62615 368.25698 z M 749.33318 374.66714 C 744.53319 374.66714 743.9992 374.99917 743.9992 377.99917 C 743.9992 380.99917 744.53319 381.33315 749.33318 381.33315 C 754.13318 381.33315 754.66717 380.99917 754.66717 377.99917 C 754.66717 374.99917 754.13318 374.66714 749.33318 374.66714 z M 555.91912 382.55972 C 551.80414 382.50126 551.9992 384.97193 551.9992 394.44448 C 551.9992 400.92227 552.44649 406.66716 552.99139 407.21206 C 553.53629 407.75697 555.70999 407.8574 557.82342 407.43472 C 559.93682 407.01203 563.09151 406.66714 564.83318 406.66714 C 567.91426 406.66714 567.9992 406.36428 567.9992 395.50698 L 567.9992 384.34878 L 562.9992 383.52261 C 559.79883 382.99362 557.52933 382.58259 555.91912 382.55972 z M 935.33318 546.00698 L 929.9992 546.46597 C 927.06586 546.71873 924.21717 547.20335 923.66717 547.54214 C 923.11717 547.88092 922.66717 556.22254 922.66717 566.07925 L 922.66717 583.99917 L 929.37029 583.99917 L 936.07342 583.99917 L 935.70232 565.00308 L 935.33318 546.00698 z M 51.391776 560.89761 C 49.510781 561.06288 49.375098 562.0147 49.376151 563.33315 C 49.376736 564.06648 78.915865 575.07659 115.02068 587.79995 C 151.1255 600.5233 196.13704 616.42396 215.04412 623.13393 L 249.41912 635.33315 L 261.52264 651.99917 C 288.16792 688.69232 310.06918 712.51115 333.74529 730.54214 L 346.15545 739.99331 L 618.07732 740.33315 C 767.6342 740.52003 945.52676 740.82153 1013.3937 741.00308 L 1136.7902 741.33315 L 1146.5109 735.33901 C 1179.6983 714.87766 1209.1729 686.53522 1229.7121 655.33315 C 1236.2942 645.334 1247.9992 624.11727 1247.9992 622.18667 C 1247.9992 621.89026 1241.5506 623.707 1233.6672 626.22378 C 1173.5817 645.40621 1109.0962 656.14207 1007.3332 663.90347 C 988.26654 665.35766 959.16715 667.6243 942.66717 668.94058 C 915.68031 671.09342 893.28595 671.33315 719.70818 671.33315 L 526.75115 671.33315 L 518.68474 663.35073 L 510.61834 655.36831 L 471.64178 654.43667 C 392.3787 652.54139 349.3664 647.11711 288.66717 631.36245 C 276.20051 628.12669 217.74113 610.43603 158.75896 592.04995 C 78.372596 566.9917 57.034761 560.40179 51.391776 560.89761 z M 746.57928 565.33315 C 745.85104 565.33315 745.33318 575.5887 745.33318 589.99917 L 745.33318 614.66714 L 749.9992 614.66714 L 754.66717 614.66714 L 754.66717 591.29995 L 754.66717 567.93472 L 751.24724 566.63393 C 749.36619 565.91876 747.26488 565.33315 746.57928 565.33315 z M 551.30389 577.33315 C 550.95346 577.33315 550.66717 587.79802 550.66717 600.58706 L 550.66717 623.83901 L 555.66717 624.36245 C 567.96923 625.64929 566.66717 627.94739 566.66717 604.94448 L 566.66717 584.55581 L 559.30389 580.94448 C 555.2543 578.95838 551.65429 577.33315 551.30389 577.33315 z M 840.28631 582.6437 C 838.37217 582.6696 839.4044 584.98647 843.82537 590.58706 L 846.39373 593.83901 L 1004.1965 606.12026 C 1090.9883 612.87486 1163.077 618.46143 1164.3937 618.53433 C 1165.7104 618.60723 1168.2809 617.17452 1170.1047 615.35073 C 1173.2154 612.24003 1173.2983 611.80019 1171.464 608.25308 C 1170.3886 606.17344 1168.7201 603.83008 1167.7551 603.04604 C 1166.4488 601.9848 853.21255 582.46922 840.28631 582.6437 z M 790.5949 582.64761 C 789.1201 582.67659 788.97801 583.81628 789.8449 586.07534 C 790.91795 588.87166 795.65486 590.50115 802.66717 590.48354 L 808.66717 590.46792 L 799.33709 585.88979 C 794.87711 583.70133 792.0697 582.61863 790.5949 582.64761 z M 925.84881 603.38784 C 924.75684 603.37515 923.94217 603.44489 923.66717 603.59878 C 923.11717 603.9065 922.66717 617.9559 922.66717 634.82143 L 922.66717 665.48745 L 928.33318 665.07729 L 933.9992 664.66714 L 934.35857 634.48159 L 934.71599 604.298 L 929.6906 603.66714 C 928.30883 603.49401 926.94078 603.40053 925.84881 603.38784 z M 641.56756 611.35073 C 641.33016 611.57172 642.03433 613.48976 643.13201 615.61245 L 645.1281 619.47183 L 731.56365 627.20815 C 779.10332 631.46381 829.10052 636.02243 842.66717 637.33706 C 872.17117 640.19603 873.40715 640.16451 874.74139 636.52651 C 876.35715 632.12089 873.27319 627.47964 867.96599 626.32925 C 863.06935 625.26784 642.30723 610.66223 641.56756 611.35073 z M 406.84099 611.51479 C 405.77792 611.52265 405.20184 611.59926 405.0617 611.7394 C 404.01022 612.79088 403.95878 614.15239 404.89178 616.24331 C 406.18581 619.14338 410.05083 619.72862 523.44842 634.1437 C 587.91872 642.33915 643.14224 649.10893 646.16912 649.18862 C 649.62964 649.27972 652.30207 648.57651 653.36639 647.29409 C 654.62021 645.78332 654.69234 644.45062 653.64568 642.15347 C 651.95904 638.4517 666.43573 640.47562 518.28435 623.23354 C 445.58744 614.77298 414.28251 611.45981 406.84099 611.51479 z M 745.33318 631.8312 L 745.33318 649.99917 L 745.33318 668.16909 L 749.66717 667.75112 L 753.9992 667.33315 L 753.9992 649.99917 L 753.9992 632.66714 L 749.66717 632.24917 L 745.33318 631.8312 z M 549.33318 641.33315 L 549.33318 653.99917 L 549.33318 666.66714 L 557.9992 666.66714 L 566.66717 666.66714 L 566.66717 654.84097 L 566.66717 643.01479 L 561.66717 642.18862 C 558.91717 641.73408 555.01586 641.35685 552.9992 641.34878 L 549.33318 641.33315 z "
       transform="translate(-42.924979,-28.124169)" />
    <path
       id="path3496"
       style="display:inline;fill:#f2f2f2;stroke-width:1.33333"
       d="M 1056.8762 153.76479 C 1056.6186 153.50724 1015.6656 154.50153 965.87029 155.97378 C 916.075 157.44603 872.4513 158.65274 868.92889 158.65737 L 862.52459 158.66714 L 844.15349 176.99917 C 829.81676 191.30605 823.41863 198.91588 815.02264 211.64956 C 789.41124 250.49276 777.59113 299.06327 786.79803 327.63198 L 788.18474 331.93081 L 798.42498 324.84292 C 828.5939 303.9621 857.69667 294.51445 892.66717 294.24917 C 907.28249 294.13823 912.50197 294.70393 925.95232 297.85659 C 952.4225 304.06097 967.68838 309.91948 1035.9992 340.08901 C 1042.2325 342.84197 1047.7602 345.14831 1048.2824 345.21401 C 1048.8046 345.27971 1047.219 340.68249 1044.759 334.99917 C 1042.299 329.31584 1037.7627 319.26713 1034.6789 312.66714 C 1013.2317 266.76628 1006.9918 235.24109 1014.4894 210.66714 C 1020.1197 192.21355 1030.5141 177.03653 1047.2844 162.78237 C 1052.8171 158.07972 1057.1337 154.02234 1056.8762 153.76479 z M 813.45818 162.15542 C 802.25466 162.23296 786.86585 162.38682 769.9992 162.59878 L 708.66717 163.37026 L 697.07537 167.50112 C 679.21912 173.86372 657.28791 188.82963 649.22185 200.15737 L 646.35076 204.18667 L 667.50896 203.25503 L 688.66717 202.32339 L 673.9992 212.63003 C 653.33968 227.14793 642.29154 236.16828 629.98357 248.56948 C 611.3158 267.37865 603.59924 282.18296 603.52264 299.33315 C 603.48494 307.7805 606.6285 321.46122 609.27849 324.38198 C 609.80188 324.95883 619.47927 323.06553 630.7824 320.17495 C 683.02831 306.81394 708.25975 307.24011 737.9992 321.98745 C 750.45447 328.16383 772.15134 343.77104 785.9992 356.51479 C 790.39919 360.56398 794.36565 363.90494 794.81365 363.93862 C 795.26163 363.97232 793.54214 358.45046 790.99139 351.66714 C 773.47398 305.08246 774.76339 265.84361 795.25115 221.99917 C 801.86018 207.85562 813.15079 189.03853 824.29803 173.59097 C 828.6941 167.49899 832.07528 162.35951 831.8117 162.17104 C 831.67991 162.07682 824.6617 162.07787 813.45818 162.15542 z M 667.89373 206.96792 C 663.91935 206.76675 629.77668 207.43285 592.02264 208.44839 L 523.38006 210.29409 L 511.4699 222.81362 C 476.29086 259.79336 465.05566 288.3603 472.72185 321.33315 C 474.72165 329.93438 486.98505 356.49379 491.69646 362.4269 L 494.15154 365.52065 L 498.22381 358.96792 C 512.39843 336.16574 539.52946 335.30823 591.08123 356.02847 C 602.21999 360.50548 617.33384 367.07782 624.66717 370.63393 C 632.00049 374.19004 638.78933 377.1515 639.7531 377.21597 C 640.71688 377.28047 637.97735 372.98379 633.66717 367.66714 C 608.01758 336.0281 599.07047 316.79346 600.28045 295.89175 C 600.80149 286.89109 601.69655 283.73182 606.38592 274.33901 C 614.99261 257.09986 632.29945 239.12441 660.3117 218.32729 L 675.11834 207.33315 L 667.89373 206.96792 z M 452.68474 301.57339 C 452.42553 301.31417 438.21515 309.77252 421.10662 320.37026 C 403.99809 330.96798 359.70046 358.09946 322.66717 380.66128 C 285.63387 403.2231 241.83317 430.10323 225.33318 440.39565 C 189.52363 462.73305 120.83022 507.94152 121.57146 508.68276 C 121.86002 508.97132 127.30591 507.13726 133.67498 504.60854 C 152.31344 497.20852 169.58134 493.17439 186.05974 492.37026 C 209.32573 491.23491 220.48755 495.74996 224.08318 507.75112 C 226.14874 514.64537 223.39421 523.86086 215.90935 535.09878 C 213.06449 539.37012 211.28022 542.67077 211.94451 542.43276 C 212.60879 542.19473 219.64229 536.29982 227.57537 529.33315 C 250.20085 509.46395 288.41468 470.63881 324.6867 430.66714 C 385.21644 363.96352 416.19893 332.57221 444.91131 308.85464 C 449.44571 305.10901 452.94397 301.8326 452.68474 301.57339 z M 981.9992 363.67886 L 937.9992 369.24526 C 913.79922 372.30693 891.29919 375.39537 887.9992 376.10854 C 872.30395 379.50045 845.76183 387.21322 843.75115 388.96597 C 839.75863 392.44633 821.60306 430.24703 816.83514 445.00503 C 809.50546 467.69228 807.58993 480.42183 808.35857 501.33315 C 808.88237 515.58337 809.75718 521.80533 812.5617 531.20034 C 816.20408 543.40213 824.46452 562.66714 826.05389 562.66714 C 826.54555 562.66714 831.83508 561.18371 837.80779 559.37026 C 871.6852 549.08438 902.68628 544.07566 938.66717 543.07534 C 977.90984 541.98434 1007.011 545.31658 1046.4054 555.41323 C 1067.3912 560.79182 1106.2951 573.73584 1135.9992 585.22183 C 1147.3658 589.61709 1157.0752 593.23952 1157.5754 593.27261 C 1158.0757 593.30571 1145.8625 580.88379 1130.4347 565.66714 C 1083.3982 519.27416 1061.9941 493.2782 1048.3644 465.9894 C 1031.6557 432.53596 1031.3542 401.48166 1047.4699 374.15933 C 1050.0138 369.84644 1051.8917 366.11434 1051.6437 365.86636 C 1051.3957 365.61838 1035.6248 365.0253 1016.5969 364.548 L 981.9992 363.67886 z M 834.84295 382.98745 C 820.96141 383.11295 788.83132 383.73658 751.79217 384.62417 C 663.09775 386.7496 656.76672 387.1878 652.36053 391.4894 C 651.4584 392.37014 648.45708 393.48986 645.69256 393.97964 C 642.92802 394.4694 635.26716 397.47212 628.66717 400.65151 L 616.66717 406.43276 L 645.01678 406.54995 L 673.36639 406.66714 L 665.22771 416.90737 C 643.32557 444.46891 630.35874 468.88822 623.43279 495.61636 C 620.44636 507.14135 618.52809 528.04851 619.4992 538.49722 L 620.33318 547.46792 L 636.26092 546.89956 C 702.87615 544.52447 777.63331 565.55986 843.33318 605.16518 C 850.6665 609.58587 856.89375 613.23065 857.17107 613.26675 C 857.44839 613.30285 856.11182 611.3825 854.20037 608.99917 C 819.55871 565.80563 806.95212 539.23023 804.56951 504.36831 C 802.39523 472.55454 815.46342 428.30939 837.91717 391.46792 C 840.55394 387.14158 842.45791 383.34657 842.14764 383.03628 C 842.07006 382.95871 839.47013 382.94562 834.84295 382.98745 z M 412.83123 383.32729 C 412.24384 383.40224 409.62163 385.64033 405.30779 389.43081 C 353.54889 434.91031 325.54412 458.55924 285.9992 490.18472 C 271.33255 501.91415 250.46795 518.30446 239.63201 526.60659 C 228.79606 534.90871 219.60597 542.22587 219.21014 542.86636 C 218.81428 543.50687 221.3795 542.89561 224.91131 541.50893 C 233.90559 537.97755 252.36831 533.63845 262.78435 532.60659 C 286.89025 530.21857 302.33693 542.63184 299.29021 561.94643 C 298.50609 566.91731 298.59158 567.12732 300.39959 564.66128 C 301.47705 563.19169 312.2481 543.09232 324.33514 519.99526 C 355.37608 460.6793 369.83301 437.62932 397.21795 403.80581 C 409.13588 389.08582 413.81021 383.20239 412.83123 383.32729 z M 641.42498 410.02651 C 626.9309 410.08133 606.99846 410.20208 585.1242 410.37612 L 505.58123 411.00893 L 490.45623 424.74331 C 463.40213 449.31136 442.52652 475.54437 430.03435 500.66714 C 417.19437 526.48939 412.07418 551.03057 412.02654 586.97573 L 411.9992 606.61831 L 426.33318 592.15347 C 449.2612 569.01641 467.06504 561.09499 495.9992 561.15933 C 530.7138 561.23653 562.68365 574.85358 622.66717 615.10854 C 636.23382 624.21312 647.50786 631.51324 647.72185 631.3312 C 647.93582 631.14915 645.90987 627.2426 643.21795 622.64956 C 631.45036 602.57123 621.44475 575.53079 618.06365 554.66714 C 610.83499 510.06155 623.02068 467.50413 655.53045 423.82143 C 661.02238 416.44201 665.32451 410.25704 665.09099 410.07534 C 664.97423 409.9845 655.91906 409.97169 641.42498 410.02651 z M 398.77849 444.12222 C 398.4017 444.09024 397.75215 444.68445 396.81365 445.86831 C 389.48844 455.10863 349.00301 509.00963 341.13396 519.99917 C 317.03105 553.66016 288.54511 596.80729 292.80974 593.19448 C 315.98616 573.56043 326.62513 566.99765 341.40935 563.21011 C 364.0616 557.40687 382.70831 570.18517 390.72967 597.00893 C 391.6631 600.13031 392.6795 602.43213 392.98748 602.12417 C 393.29544 601.81621 392.92059 585.76181 392.15545 566.44839 C 390.29719 519.54243 392.6797 475.31449 398.44842 449.63979 C 399.27434 445.96389 399.40649 444.17551 398.77849 444.12222 z M 494.82342 564.27261 C 481.52173 564.22548 470.41311 566.67749 458.45232 572.19058 C 450.30793 575.94457 447.83865 578.04121 438.37029 589.2355 C 432.43241 596.25577 426.36522 603.34917 424.88787 604.99917 C 423.41052 606.64917 422.52412 607.99917 422.91717 607.99917 C 423.31022 607.99917 431.36417 604.34247 440.8156 599.87222 C 462.82306 589.46331 487.4431 579.15699 505.84295 572.65151 C 522.91114 566.61686 522.27082 565.60274 500.66717 564.44448 C 498.66847 564.33732 496.72366 564.27934 494.82342 564.27261 z "
       transform="translate(-42.924979,-28.124169)" />
  </g>
</svg>
